<?xml version="1.0" encoding="UTF-8"?><svg id="Layer_2" xmlns="http://www.w3.org/2000/svg" xmlns:xlink="http://www.w3.org/1999/xlink" viewBox="0 0 1483.15 954.51"><defs><style>.cls-1,.cls-2{fill:none;}.cls-3{clip-path:url(#clippath);}.cls-4,.cls-5{fill:#fff;}.cls-6{fill:#5ea485;}.cls-5{isolation:isolate;opacity:.53;}.cls-2{stroke:#fff;stroke-width:5px;}.cls-7{opacity:.54;}</style><clipPath id="clippath"><rect class="cls-1" x="1209.19" y="158.59" width="198.92" height="44.81"/></clipPath></defs><g id="Layer_1-2"><g id="Group_161"><g id="Group_157"><g id="Group_155"><line id="Line_40" class="cls-2" x1="413.65" y1="742.5" x2="413.65" y2="54"/><path id="Polygon_1" class="cls-4" d="M413.15,45l8,14h-16l8-14Z"/></g><g id="Group_156"><line id="Line_40-2" class="cls-2" x1="411.65" y1="740" x2="1436.9" y2="740"/><path id="Polygon_1-2" class="cls-4" d="M1445.9,739.5l-14,8v-16l14,8Z"/></g></g><g id="Group_159"><g id="Group_158" class="cls-7"><path id="Rectangle_108" class="cls-4" d="M587.15,66h639c59.65,0,108,48.35,108,108h0c0,59.65-48.35,108-108,108H587.15c-59.65,0-108-48.35-108-108h0c0-59.65,48.35-108,108-108Z"/><path id="Rectangle_109" class="cls-4" d="M1420.65,197.5v392c0,59.65-48.35,108-108,108h0c-59.65,0-108-48.35-108-108V197.5c0-59.65,48.35-108,108-108h0c59.65,0,108,48.35,108,108Z"/></g><circle id="Ellipse_16" class="cls-6" cx="1308.15" cy="175" r="175"/><circle id="Ellipse_17" class="cls-5" cx="1308.15" cy="175" r="138"/></g><g id="Group_160"><g class="cls-3"><g id="Group_1"><path id="Path_1" class="cls-4" d="M1229.47,158.91c5.84,0,9.98,1.78,12.74,4.06,2.68,2.19,3.97,4.87,3.97,6.73,0,3.33-4.54,3.98-4.79,3.57-1.78-4.3-5.11-7.62-11.76-7.62-7.3,0-12.82,5.76-12.82,13.71s5.44,13.87,12.82,13.87c6.57,0,9.98-3.33,11.76-7.62,.24-.41,4.79,.16,4.79,3.65,0,1.79-1.3,4.46-4.06,6.65-2.68,2.27-6.9,4.06-12.65,4.06-11.76,0-20.28-8.6-20.28-20.6s8.6-20.44,20.28-20.44"/><path id="Path_2" class="cls-4" d="M1275.54,175.46h1.06v-.81c0-5.92-3.41-9.17-9.65-9.17-5.92,0-9.41,3.08-11.19,6.65,0,.08-4.95,0-4.95-3.89,.19-1.92,1.16-3.68,2.68-4.87,2.68-2.43,7.38-4.46,14.03-4.46,11.03,0,17.03,5.68,17.03,15.57v23.93c0,.41-1.46,.89-2.92,.89-2.23,.18-4.23-1.37-4.62-3.57-.21-.88-.32-1.78-.32-2.68-3,4.22-8.11,6.73-14.03,6.73-8.36,0-13.3-4.46-13.3-11.11,0-9,8.6-12.9,26.2-13.22m1.06,5.03l-2.19,.08c-11.36,.41-17.2,2.51-17.2,7.79,0,3.49,2.76,5.68,7.38,5.68,6.98,0,12-4.38,12-10.55v-3Z"/><path id="Path_3" class="cls-4" d="M1408.09,174.74c0-5.05-2.93-18.59-20.86-15.76h-.14c-3.45,.53-6.58,2.31-8.79,5.01v.03s-.02-.03-.02-.03c-2.21-2.7-5.35-4.47-8.79-4.99h-.14c-11.34-1.8-16.68,2.96-19.07,7.97l.43,2.15c.24,1.24,.57,2.57,.98,3.93,1.02,3.32,2.37,6.53,4.05,9.58,.16,.3,.31,.58,.45,.87l-.13-6.95c0-6.57,3.16-10.57,8.91-10.57h0c.25-.01,.48-.02,.7-.01h0c5.74,.01,8.57,4.28,8.59,10.81v18.64c0,2.92,1.46,3.81,3.57,3.81h.94c2.11,0,3.57-.89,3.57-3.81v-18.65c.02-6.52,2.86-10.8,8.6-10.8h0c.21-.01,.45-.01,.7-.01h0c5.76,0,8.91,4.01,8.91,10.58l-.3,16.43h0v.17c.03,.85,.13,1.69,.33,2.51,.35,2,2.05,3.48,4.08,3.54l.04,.03c.13,0,.25,0,.37,0,.05,0,.09,0,.13,0,1.46,0,2.92-.49,2.92-.89v-19.9c.02-1.85,.03-3.22,0-3.68"/><path id="Path_4" class="cls-4" d="M1340.74,183.63c.16-.32,.33-.65,.51-1,2.35-4.23,4.06-8.79,5.07-13.52l.39-1.98c-2.35-5.08-7.68-9.96-19.15-8.15l-.14,.02c-3.45,.52-6.58,2.3-8.79,4.99v.03s-.02-.03-.02-.03c-2.21-2.7-5.35-4.47-8.79-4.99l-.14-.02c-17.93-2.83-20.86,10.71-20.86,15.76-.03,.46-.03,1.83,0,3.68v19.91c0,.41,1.46,.89,2.92,.89,.05,0,.09,0,.13,0,.12,0,.24,0,.37,0l.04-.03c2.03-.06,3.73-1.54,4.08-3.54,.19-.83,.3-1.67,.32-2.51v-.03s0-.09,0-.09v-.04h0s-.3-16.44-.3-16.44c0-6.57,3.15-10.57,8.91-10.57h0c.25-.01,.48-.01,.7,0h0c5.74,0,8.57,4.28,8.6,10.81v18.64c0,2.92,1.46,3.81,3.57,3.81h.94c2.11,0,3.57-.89,3.57-3.81v-18.65c.02-6.52,2.86-10.8,8.6-10.8h0c.21,0,.45,0,.7,0h0c5.76,0,8.91,4.01,8.91,10.58l-.15,7.1Z"/><path id="Path_5" class="cls-4" d="M1356.51,190.83c-.07-.57-.19-1.13-.36-1.68-.63-1.9-1.43-3.75-2.4-5.5-1.74-3.18-3.15-6.52-4.21-9.99-.37-1.27-.73-2.66-1.02-4.12-1.06,4.94-2.84,9.69-5.28,14.11-.35,.67-.7,1.35-1.02,2.03s-.63,1.38-.9,2.09c-.13,.35-.24,.71-.38,1.06-.13,.35-.24,.7-.33,1.07-.17,.75-.26,1.51-.26,2.28-.02,1.69,.56,3.32,1.64,4.62,.57,.7,1.24,1.31,2,1.8,1.01,.64,2.15,1.05,3.34,1.21,.05,.22,.08,.43,.13,.65,.17,.75,.36,1.51,.55,2.26,.04,.18,.13,.35,.27,.49,.16,.13,.36,.2,.57,.2h.09c.14,0,.28-.02,.41-.05,.06-.01,.36-.11,.46-.14l.12-.04-.04-.12c-.79-2.53-1.4-5.12-1.82-7.74-.65-5.58-.54-11.22,.34-16.77-.14,7.06,.75,14.11,2.64,20.91,.99-.33,1.91-.84,2.71-1.5,1.67-1.37,2.68-3.39,2.79-5.55,.03-.53,.02-1.06-.05-1.59"/></g></g></g></g></g></svg>