<svg xmlns="http://www.w3.org/2000/svg" width="78.489" height="163.892" viewBox="0 0 78.489 163.892">
  <path id="Path_7" data-name="Path 7" d="M287.956,120.518a45.175,45.175,0,0,0-1.737-8.122,155.06,155.06,0,0,0-11.6-26.61c-8.189-15.37-15.47-31.491-20.4-48.341-1.8-6.137-3.547-12.883-4.939-19.937-4.836,24.361-14.014,46.419-25.557,68.278-1.713,3.241-3.377,6.512-4.945,9.826s-3.035,6.679-4.355,10.1c-.654,1.7-1.177,3.441-1.825,5.139a42.468,42.468,0,0,0-1.592,5.166,47.659,47.659,0,0,0-1.235,11.012,34.124,34.124,0,0,0,7.95,22.352,41.385,41.385,0,0,0,9.693,8.691,39.867,39.867,0,0,0,16.142,5.847c.227,1.062.384,2.1.623,3.159.817,3.65,1.74,7.333,2.651,10.964a4.8,4.8,0,0,0,1.286,2.354,4.3,4.3,0,0,0,2.772.99c.139.006.275.012.415.012a9.623,9.623,0,0,0,2-.221c.272-.057,1.758-.551,2.2-.7l.605-.2-.2-.605a271.254,271.254,0,0,1-8.824-37.434c-5.565-40.461,1.664-81.148,1.664-81.148-.306,55.558,10.2,92.881,12.792,101.218a40.393,40.393,0,0,0,13.122-7.257,37.275,37.275,0,0,0,13.518-26.846,43.233,43.233,0,0,0-.23-7.69" transform="translate(-209.774 -17.508)" fill="#459672"/>
</svg>
