<svg xmlns="http://www.w3.org/2000/svg" xmlns:xlink="http://www.w3.org/1999/xlink" width="163.406" height="36.81" viewBox="0 0 163.406 36.81">
  <defs>
    <clipPath id="clip-path">
      <rect id="Rectangle_1" data-name="Rectangle 1" width="163.406" height="36.81" fill="none"/>
    </clipPath>
  </defs>
  <g id="Group_20" data-name="Group 20" transform="translate(0 0)">
    <g id="Group_1" data-name="Group 1" transform="translate(0 0)" clip-path="url(#clip-path)">
      <path id="Path_1" data-name="Path 1" d="M16.658.506A16.023,16.023,0,0,1,27.119,3.837c2.2,1.8,3.265,4,3.265,5.53,0,2.732-3.732,3.265-3.932,2.932-1.465-3.531-4.2-6.263-9.661-6.263-6,0-10.529,4.731-10.529,11.261,0,6.6,4.465,11.394,10.529,11.394,5.4,0,8.2-2.732,9.661-6.263.2-.333,3.932.133,3.932,3,0,1.466-1.067,3.665-3.331,5.464-2.2,1.866-5.664,3.332-10.4,3.332C7,34.222,0,27.159,0,17.3,0,7.569,7.063.506,16.658.506" transform="translate(0 -0.246)" fill="#1a1818"/>
      <path id="Path_2" data-name="Path 2" d="M85.737,14.1H86.6v-.666c0-4.864-2.8-7.53-7.929-7.53a9.684,9.684,0,0,0-9.2,5.464c0,.067-4.064,0-4.064-3.2a5.818,5.818,0,0,1,2.2-4c2.2-2,6.064-3.665,11.527-3.665C88.2.506,93.134,5.17,93.134,13.3V32.956c0,.333-1.2.733-2.4.733a3.573,3.573,0,0,1-3.8-2.932,9.885,9.885,0,0,1-.267-2.2,13.855,13.855,0,0,1-11.527,5.53c-6.864,0-10.928-3.665-10.928-9.128,0-7.4,7.063-10.594,21.522-10.861M86.6,18.23l-1.8.067c-9.329.333-14.126,2.065-14.126,6.4,0,2.865,2.265,4.664,6.064,4.664,5.731,0,9.861-3.6,9.861-8.662Z" transform="translate(-31.231 -0.246)" fill="#1a1818"/>
      <path id="Path_3" data-name="Path 3" d="M273.122,13.262c0-4.15-2.408-15.269-17.14-12.946l-.116.011a11.57,11.57,0,0,0-7.224,4.1l-.007.022-.008-.022A11.569,11.569,0,0,0,241.4.327l-.115-.011c-9.315-1.469-13.7,2.438-15.667,6.558l.349,1.765c.2,1.022.47,2.107.8,3.23a41.684,41.684,0,0,0,3.326,7.871c.129.243.253.481.372.714l-.1-5.712c0-5.4,2.592-8.684,7.323-8.684V6.051c.2,0,.4-.005.572,0l0,.008c4.712,0,7.043,3.51,7.06,8.869V30.245c0,2.4,1.2,3.132,2.932,3.132h.77c1.733,0,2.932-.733,2.932-3.132V14.926c.017-5.358,2.348-8.869,7.061-8.869l0-.008c.176,0,.37,0,.572,0v.006c4.731,0,7.322,3.287,7.322,8.684l-.245,13.5,0,0c0,.013,0,.024,0,.037l0,.076,0,.021a10.087,10.087,0,0,0,.263,2.066,3.506,3.506,0,0,0,3.353,2.906l.032.026c.109,0,.2,0,.3-.007.037,0,.072.007.11.007,1.2,0,2.4-.4,2.4-.733V16.288c.02-1.522.024-2.644,0-3.026" transform="translate(-109.733 0)" fill="#1a1818"/>
      <path id="Path_4" data-name="Path 4" d="M169.981,20.566c.133-.262.271-.532.423-.82a40.373,40.373,0,0,0,4.168-11.109l.323-1.627c-1.935-4.17-6.312-8.179-15.73-6.695l-.116.011a11.571,11.571,0,0,0-7.224,4.1l-.007.022-.007-.022a11.571,11.571,0,0,0-7.224-4.1l-.116-.011c-14.732-2.322-17.139,8.8-17.139,12.947-.025.381-.021,1.5,0,3.026V32.643c0,.333,1.2.733,2.4.733.037,0,.072-.006.11-.006.1,0,.194.006.3.006l.032-.026a3.507,3.507,0,0,0,3.353-2.906,10.132,10.132,0,0,0,.262-2.066l0-.021v-.075c0-.013,0-.024,0-.037l0-.005-.244-13.5c0-5.4,2.591-8.685,7.322-8.685l0-.006c.2,0,.4-.005.573,0l0,.008c4.713,0,7.043,3.51,7.061,8.869V30.245c0,2.4,1.2,3.131,2.931,3.131h.771c1.733,0,2.931-.733,2.931-3.131V14.925c.017-5.358,2.348-8.869,7.061-8.869l0-.008c.176,0,.37,0,.573,0l0,.006c4.731,0,7.322,3.287,7.322,8.685Z" transform="translate(-61.92 0)" fill="#1a1818"/>
      <path id="Path_5" data-name="Path 5" d="M223.044,34.992a7.668,7.668,0,0,0-.295-1.379A26.317,26.317,0,0,0,220.78,29.1a43.644,43.644,0,0,1-3.462-8.2c-.306-1.042-.6-2.187-.838-3.384A42.237,42.237,0,0,1,212.142,29.1c-.291.55-.573,1.105-.839,1.668s-.515,1.134-.739,1.715c-.111.288-.2.584-.31.872a7.206,7.206,0,0,0-.27.877,8.089,8.089,0,0,0-.21,1.869,5.792,5.792,0,0,0,1.349,3.794,7.024,7.024,0,0,0,1.645,1.475,6.766,6.766,0,0,0,2.74.992c.039.18.065.356.106.536.139.619.3,1.245.45,1.861a.815.815,0,0,0,.218.4.73.73,0,0,0,.471.168l.07,0a1.634,1.634,0,0,0,.34-.037c.046-.01.3-.093.374-.119l.1-.034-.034-.1a46.041,46.041,0,0,1-1.5-6.354,50.464,50.464,0,0,1,.283-13.773,59.5,59.5,0,0,0,2.171,17.18,6.856,6.856,0,0,0,2.227-1.232,6.327,6.327,0,0,0,2.294-4.557,7.338,7.338,0,0,0-.039-1.305" transform="translate(-102.025 -8.515)" fill="#459672"/>
    </g>
  </g>
</svg>
